<?xml version="1.0" encoding="UTF-8"?>
<svg version="1.1" xmlns="http://www.w3.org/2000/svg" width="1090" height="229">
<path d="M0 0 C85.0589172 0 85.0589172 0 103.44140625 16.3515625 C121.42011963 35.36664282 124.75957602 57.95194029 124.13623047 83.05224609 C123.25581975 102.10256685 115.57082353 119.53588546 101.7265625 132.7109375 C74.01328262 155.97738737 32.17410781 147 0 147 C0 98.49 0 49.98 0 0 Z M33 30 C33 59.04 33 88.08 33 118 C59.78535068 119.58472846 59.78535068 119.58472846 80.83984375 107.62109375 C91.06920016 95.20898136 92.07531991 80.39913257 91 65 C89.31031943 52.38019822 84.7319497 43.22418284 75 35 C60.55128205 28.07692308 60.55128205 28.07692308 33 30 Z " fill="#FDFEFE" transform="translate(25,40)"/>
<path d="M0 0 C4.48262279 3.16655026 7.92594564 7.02213852 11.3125 11.3125 C11.786875 10.44625 12.26125 9.58 12.75 8.6875 C18.13715405 0.67292695 29.11150988 -3.82623101 38.3125 -5.6875 C49.84315749 -6.76134749 60.90851485 -4.28342133 70.3203125 2.62890625 C81.11039824 11.74758655 84.74891998 22.47441867 86.14189911 36.22557449 C86.65495695 42.50170528 86.55341762 48.79829233 86.5078125 55.08984375 C86.50406942 56.63782058 86.5012286 58.18579983 86.49923706 59.73377991 C86.49170231 63.75319282 86.47214489 67.77245471 86.4498291 71.79180908 C86.42549408 76.64375438 86.41654118 81.49575096 86.40492249 86.34774017 C86.38571153 93.66943091 86.34731922 100.99079215 86.3125 108.3125 C76.0825 108.3125 65.8525 108.3125 55.3125 108.3125 C55.27511719 103.36378906 55.23773437 98.41507812 55.19921875 93.31640625 C55.16891598 90.16728396 55.13775313 87.01821661 55.10351562 83.86914062 C55.04934298 78.87901698 54.9982276 73.88900201 54.96606445 68.89868164 C54.93991159 64.87196707 54.89942621 60.8456208 54.84931374 56.81913567 C54.83272555 55.28873235 54.82116144 53.75826546 54.81488609 52.22778511 C55.21415268 39.15474261 55.21415268 39.15474261 49.89653015 27.70777893 C45.45123937 23.79218391 41.4572099 22.89401276 35.73046875 22.96875 C31.5278457 23.56621499 28.43554684 25.49808367 25.3125 28.3125 C21.78392157 33.88993042 21.18907052 38.6877556 21.10717773 45.19238281 C21.09727814 45.87571686 21.08737854 46.5590509 21.07717896 47.26309204 C21.04567956 49.51390154 21.02085248 51.76473211 20.99609375 54.015625 C20.97551423 55.57933083 20.95451749 57.14303122 20.93312073 58.70672607 C20.87800314 62.81660551 20.82854852 66.92653428 20.78027344 71.03649902 C20.72113646 75.97085959 20.65496538 80.90513024 20.58997345 85.8394165 C20.49209372 93.33038928 20.40314901 100.82142051 20.3125 108.3125 C10.0825 108.3125 -0.1475 108.3125 -10.6875 108.3125 C-10.6968457 106.14300781 -10.70619141 103.97351563 -10.71582031 101.73828125 C-10.74967123 94.54966426 -10.80526502 87.36133189 -10.87140274 80.17294312 C-10.91081905 75.81694081 -10.94303602 71.46113889 -10.95849609 67.10498047 C-10.97370147 62.89665607 -11.00821502 58.68888276 -11.05580902 54.48080444 C-11.07058301 52.87979945 -11.07853872 51.27871576 -11.07938385 49.67764282 C-10.99076254 37.90954293 -10.99076254 37.90954293 -15.6875 27.3125 C-19.02713664 24.33769761 -23.26351175 23.08963689 -27.6875 22.75 C-32.40332371 23.03777664 -36.37509498 24.97225964 -39.6875 28.3125 C-43.7847203 34.44081581 -44.28784661 40.03162357 -44.296875 47.2578125 C-44.31341125 48.30411835 -44.32994751 49.35042419 -44.34698486 50.42843628 C-44.3952547 53.76484867 -44.41669712 57.10081534 -44.4375 60.4375 C-44.46570721 62.62372107 -44.49564113 64.80992057 -44.52734375 66.99609375 C-44.71122565 80.76792059 -44.71043556 94.5396956 -44.6875 108.3125 C-54.9175 108.3125 -65.1475 108.3125 -75.6875 108.3125 C-75.6875 71.3525 -75.6875 34.3925 -75.6875 -3.6875 C-67.1075 -3.6875 -58.5275 -3.6875 -49.6875 -3.6875 C-47.6875 2.3125 -47.6875 2.3125 -45.6875 8.3125 C-45.3471875 7.86519531 -45.006875 7.41789062 -44.65625 6.95703125 C-33.22684423 -7.2993286 -15.41335657 -9.58763027 0 0 Z " fill="#FDFEFE" transform="translate(495.6875,78.6875)"/>
<path d="M0 0 C13.2 0 26.4 0 40 0 C43.0260574 7.26253776 45.95759358 14.40240764 48.5390625 21.80859375 C48.85764221 22.71288116 49.17622192 23.61716858 49.50445557 24.54885864 C50.18993314 26.49537495 50.87393726 28.44241067 51.55657959 30.3899231 C53.42094615 35.70786761 55.29700567 41.02168864 57.171875 46.3359375 C57.56353851 47.44689285 57.95520203 48.55784821 58.35873413 49.70246887 C62.41699526 61.20355472 66.53187189 72.68415415 70.65408325 84.16244507 C71.86716798 87.54068909 73.07916234 90.91932221 74.29077148 94.2980957 C77.45498576 103.12170176 80.61961011 111.94514325 83.79443359 120.76493835 C84.85718304 123.72025244 85.91622729 126.67688192 86.97393799 129.63400269 C87.44336393 130.94380587 87.91446871 132.2530088 88.38739014 133.56155396 C89.01646204 135.30251059 89.6393019 137.0457155 90.26171875 138.7890625 C90.77158325 140.20759521 90.77158325 140.20759521 91.29174805 141.65478516 C92 144 92 144 92 147 C81.11 147 70.22 147 59 147 C55.22876383 138.51471863 52.09043188 129.75622367 49 121 C30.19 121 11.38 121 -8 121 C-9.98 126.28 -11.96 131.56 -14 137 C-15.32 140.3 -16.64 143.6 -18 147 C-29.22 147 -40.44 147 -52 147 C-47.3715564 132.88704082 -42.65927078 118.86290345 -37.5 104.9375 C-34.10860961 95.78292715 -30.78722433 86.61177517 -27.625 77.375 C-23.25042997 64.6097796 -18.66420647 51.92484695 -14.06742859 39.23849487 C-13.79509903 38.48690094 -13.52276947 37.73530701 -13.2421875 36.9609375 C-12.97094559 36.21248566 -12.69970367 35.46403381 -12.42024231 34.69290161 C-8.23764787 23.14380551 -4.12346569 11.57032164 0 0 Z M20 38 C12.79300706 57.98057294 12.79300706 57.98057294 5.875 78.0625 C5.43305298 79.36223755 5.43305298 79.36223755 4.98217773 80.68823242 C4.71735596 81.48334229 4.45253418 82.27845215 4.1796875 83.09765625 C3.95007324 83.78351807 3.72045898 84.46937988 3.48388672 85.17602539 C2.87178882 87.1687709 2.87178882 87.1687709 3 90 C14.55 90 26.1 90 38 90 C36.46854168 82.87118735 36.46854168 82.87118735 34.39599609 76.03100586 C33.94575577 74.74068703 33.94575577 74.74068703 33.48641968 73.42430115 C33.16863556 72.53018021 32.85085144 71.63605927 32.5234375 70.71484375 C32.19332672 69.77314835 31.86321594 68.83145294 31.52310181 67.86122131 C30.47853686 64.88493324 29.42689622 61.91120387 28.375 58.9375 C27.66098722 56.90706665 26.94744096 54.87646918 26.234375 52.84570312 C24.49497131 47.89522558 22.74976791 42.94682312 21 38 C20.67 38 20.34 38 20 38 Z " fill="#01C3CB" transform="translate(928,40)"/>
<path d="M0 0 C9.9 0 19.8 0 30 0 C30.165 4.33125 30.33 8.6625 30.5 13.125 C30.55220703 14.41809082 30.60441406 15.71118164 30.65820312 17.04345703 C31.66756043 45.46167164 30.88563738 73.96382766 30.53643799 102.38983154 C30.47479928 107.43955955 30.41523535 112.48931205 30.35546875 117.5390625 C30.23894787 127.35939953 30.12003221 137.17970526 30 147 C21.42 147 12.84 147 4 147 C3.01 143.7 2.02 140.4 1 137 C-1.62157116 138.49804066 -3.99410386 139.99505999 -6.3125 141.9375 C-15.48819555 148.97931286 -26.07408313 151.14434832 -37.4375 149.6875 C-50.82119856 147.34535275 -61.36373556 141.51633058 -69.4375 130.43359375 C-80.17502838 113.7098933 -81.64049016 92.08422818 -77.86865234 72.89013672 C-74.8267885 59.70270917 -68.37066399 47.28673515 -56.66015625 39.890625 C-50.12210722 36.31536763 -43.47116683 33.66490967 -36 33 C-35.14148438 32.91878906 -34.28296875 32.83757812 -33.3984375 32.75390625 C-20.39201908 32.13544543 -10.81747264 37.14602189 -1 45 C-0.67 30.15 -0.34 15.3 0 0 Z M-43 70 C-49.13144788 79.58306714 -49.84206394 89.96086859 -48 101 C-46.24934674 107.57946938 -44.22023257 114.44518979 -38.109375 118.14453125 C-31.39926839 121.66112416 -24.98081558 123.27594967 -17.46875 121.3515625 C-9.75818198 118.63428401 -5.94943099 114.6971967 -2.1875 107.5625 C-0.89770388 103.69311163 -0.25060114 100.04758817 0 96 C0.05285156 95.32324219 0.10570312 94.64648438 0.16015625 93.94921875 C0.53471005 85.04135233 -1.01447516 74.86574909 -7 68 C-11.97337599 63.29545515 -17.08491955 60.86779044 -23.875 60.5625 C-31.63859088 60.82246804 -38.137571 63.88723211 -43 70 Z " fill="#FDFEFE" transform="translate(365,40)"/>
<path d="M0 0 C1.051875 0.721875 2.10375 1.44375 3.1875 2.1875 C13.08675797 12.08675797 15.30322686 24.36357678 15.34837818 37.85347366 C15.33966994 40.31393391 15.31661379 42.77401683 15.29296875 45.234375 C15.28736089 46.96599965 15.28309643 48.69762911 15.28010559 50.42926025 C15.26875038 54.94691531 15.2393656 59.46427264 15.20599365 63.98181152 C15.17508962 68.60762507 15.16155717 73.23348757 15.14648438 77.859375 C15.11448514 86.90640064 15.06179557 95.95312878 15 105 C6.09 105 -2.82 105 -12 105 C-12.99 101.37 -13.98 97.74 -15 94 C-16.0725 95.216875 -17.145 96.43375 -18.25 97.6875 C-25.43950344 104.90258886 -34.75337638 107.68766882 -44.75 108.1875 C-57.10274646 107.97573863 -68.05716421 103.52608228 -77 95 C-84.0443712 86.44734494 -84.81266599 76.71945138 -84 66 C-82.61037774 57.69729895 -79.17981923 51.22720927 -72.48046875 46.0546875 C-62.5533639 39.41810551 -53.10888985 36.81334055 -41.1953125 36.90234375 C-40.1093428 36.90446617 -40.1093428 36.90446617 -39.00143433 36.90663147 C-36.70924593 36.91218925 -34.41715843 36.92473367 -32.125 36.9375 C-30.56250142 36.94252047 -29.00000129 36.94708241 -27.4375 36.95117188 C-23.62496165 36.96214481 -19.81249788 36.9793799 -16 37 C-16.22934409 35.08075213 -16.48434343 33.1645594 -16.75 31.25 C-16.95882812 29.64898437 -16.95882812 29.64898437 -17.171875 28.015625 C-18.12184872 24.55628674 -19.24831666 23.24040617 -22 21 C-27.42617813 18.20685257 -33.03833238 18.35250762 -39 19 C-42.54340127 20.20388765 -45.28350832 21.7473103 -47.1953125 25.08984375 C-49.49384737 27.52270858 -51.33864365 27.58008896 -54.59985352 27.75805664 C-55.69511353 27.7850061 -55.69511353 27.7850061 -56.8125 27.8125 C-57.56136475 27.84400146 -58.31022949 27.87550293 -59.08178711 27.90795898 C-66.09812842 28.14018007 -73.01702687 27.7193237 -80 27 C-78.60856781 16.87916169 -73.48989975 8.84603117 -66 2 C-47.24057277 -11.99166583 -19.50141285 -13.58808121 0 0 Z M-37.9375 59.25 C-39.16206909 59.27114868 -39.16206909 59.27114868 -40.41137695 59.29272461 C-45.49334806 59.50300945 -48.31973581 60.16849208 -52 64 C-53.73263912 67.46527824 -53.4719774 71.21107028 -53 75 C-50.63154214 79.12287109 -48.43479232 80.54930753 -44 82 C-35.06376164 82.9374528 -28.30848302 81.78676519 -21.1875 76.125 C-17.7078193 72.93399236 -16.11481907 70.5175145 -15.89453125 65.6875 C-15.87707603 63.45323202 -15.91245633 61.23236357 -16 59 C-23.31409768 58.86860902 -30.62743365 58.99797716 -37.9375 59.25 Z " fill="#FCFEFE" transform="translate(682,82)"/>
<path d="M0 0 C0.72316406 0.46921875 1.44632812 0.9384375 2.19140625 1.421875 C13.87320212 9.72365887 20.83232127 22.3379757 23.3125 36.3125 C25.76738315 56.14040233 23.48585149 73.89883512 12.2578125 90.58984375 C3.99504511 100.96263114 -8.72135895 106.10990645 -21.375 108.6875 C-38.32361678 110.14858765 -53.71793686 107.1544172 -67.578125 97.0390625 C-80.01862043 86.56496796 -84.30357412 72.58405265 -86 57 C-87.24902816 39.57215393 -84.0019399 23.52190896 -73.22265625 9.5390625 C-55.87699753 -10.27583762 -22.23965663 -14.59933696 0 0 Z M-49.78515625 29.13671875 C-55.87439507 38.47616222 -56.37835149 50.23663791 -54.46875 60.9921875 C-52.29426374 68.76833945 -48.67296285 74.28967328 -42 79 C-35.04622091 81.70424743 -28.91598436 81.88960222 -21.9375 79.5 C-15.69461814 76.74352755 -11.70560711 72.80106726 -8.90625 66.5625 C-5.46759725 55.86446922 -5.45455232 43.35351972 -10 33 C-13.32933117 27.00720389 -17.5447441 23.07286078 -23.98828125 20.54296875 C-34.00408266 17.83967478 -43.48116197 20.98169014 -49.78515625 29.13671875 Z " fill="#FCFEFE" transform="translate(249,81)"/>
<path d="M0 0 C10.3081468 7.92666938 15.49164573 19.02240334 17.31640625 31.78125 C17.58847773 37.54433093 17.54983053 43.29830585 17.51171875 49.06640625 C17.50798267 50.73505991 17.50513851 52.40371579 17.50314331 54.07237244 C17.49555365 58.43710523 17.47594593 62.80170222 17.45373535 67.16638184 C17.43317569 71.63108484 17.42412007 76.09581005 17.4140625 80.56054688 C17.39269505 89.30085013 17.35755165 98.04101746 17.31640625 106.78125 C7.08640625 106.78125 -3.14359375 106.78125 -13.68359375 106.78125 C-13.69777344 101.77195312 -13.71195313 96.76265625 -13.7265625 91.6015625 C-13.74664041 88.41138924 -13.76817724 85.22135738 -13.79492188 82.03125 C-13.83715326 76.97748348 -13.87423588 71.92407576 -13.87915039 66.87011719 C-13.88345662 62.79137368 -13.91210934 58.71343616 -13.95702553 54.63494492 C-13.96992685 53.08583156 -13.97433455 51.53662138 -13.96974754 49.98746109 C-13.94979082 41.19389513 -14.0795593 33.08921587 -19.68359375 25.78125 C-24.37171988 21.99612951 -29.27770251 21.11383292 -35.2265625 21.40625 C-40.18902663 22.16363721 -43.9866237 23.75923843 -47.25390625 27.65234375 C-51.13012588 33.51097285 -51.79818312 38.60463129 -51.88891602 45.59106445 C-51.90376541 46.58702385 -51.90376541 46.58702385 -51.91891479 47.60310364 C-51.95033801 49.78354405 -51.97521074 51.96400619 -52 54.14453125 C-52.02058613 55.66196742 -52.04158302 57.17939807 -52.06297302 58.69682312 C-52.11802248 62.68009963 -52.16750687 66.66342641 -52.21582031 70.64678955 C-52.27502015 75.43183103 -52.3411534 80.21678114 -52.4061203 85.00174713 C-52.5039142 92.26152535 -52.59291752 99.52136367 -52.68359375 106.78125 C-62.91359375 106.78125 -73.14359375 106.78125 -83.68359375 106.78125 C-83.70614172 92.32591854 -83.72450706 77.87059867 -83.73540592 63.41525364 C-83.74056864 56.70383132 -83.74761088 49.99242068 -83.7590332 43.28100586 C-83.7698594 36.81011264 -83.77587001 30.33923158 -83.77847099 23.86833 C-83.78032573 21.39346055 -83.78394725 18.9185918 -83.78932381 16.44372749 C-83.79653068 12.99054627 -83.79758484 9.53741599 -83.79711914 6.08422852 C-83.80071442 5.04989182 -83.80430969 4.01555511 -83.80801392 2.94987488 C-83.80663925 2.01452911 -83.80526459 1.07918335 -83.80384827 0.11549377 C-83.80477006 -0.7021366 -83.80569185 -1.51976698 -83.80664158 -2.36217403 C-83.68359375 -4.21875 -83.68359375 -4.21875 -82.68359375 -5.21875 C-80.82989764 -5.30612645 -78.97291834 -5.32573153 -77.1171875 -5.31640625 C-75.99248047 -5.31318359 -74.86777344 -5.30996094 -73.70898438 -5.30664062 C-72.52498047 -5.29826172 -71.34097656 -5.28988281 -70.12109375 -5.28125 C-68.93322266 -5.27673828 -67.74535156 -5.27222656 -66.52148438 -5.26757812 C-63.57547149 -5.25574675 -60.62955694 -5.23926287 -57.68359375 -5.21875 C-57.49023438 -4.67605469 -57.296875 -4.13335937 -57.09765625 -3.57421875 C-56.83726562 -2.85878906 -56.576875 -2.14335938 -56.30859375 -1.40625 C-56.05335938 -0.69855469 -55.798125 0.00914063 -55.53515625 0.73828125 C-54.65701685 3.02898359 -54.65701685 3.02898359 -52.68359375 5.78125 C-52.23371094 5.33394531 -51.78382813 4.88664062 -51.3203125 4.42578125 C-36.67205034 -9.34182386 -16.95177674 -11.10164512 0 0 Z " fill="#FDFEFE" transform="translate(802.68359375,80.21875)"/>
<path d="M0 0 C0.68429077 -0.00095673 1.36858154 -0.00191345 2.0736084 -0.00289917 C3.52286877 -0.0035808 4.97213218 -0.00172773 6.42138672 0.00244141 C8.64687928 0.00778998 10.87217001 0.0024959 13.09765625 -0.00390625 C14.50260461 -0.00324547 15.90755285 -0.0019643 17.3125 0 C18.59962891 0.00112793 19.88675781 0.00225586 21.21289062 0.00341797 C24.15625 0.1328125 24.15625 0.1328125 25.15625 1.1328125 C25.25279727 3.01842768 25.27812241 4.90770705 25.27650452 6.79579163 C25.27787918 8.02563278 25.27925385 9.25547394 25.28067017 10.52258301 C25.27713056 11.89794946 25.27349574 13.27331567 25.26977539 14.64868164 C25.26949352 16.08723448 25.26965124 17.52578746 25.2702179 18.96434021 C25.27050589 22.88152393 25.26460884 26.79867729 25.25764394 30.71585393 C25.25141074 34.80515087 25.25080663 38.89444843 25.24961853 42.98374939 C25.24650511 50.73273648 25.23829159 58.48170953 25.22826904 66.23069042 C25.21710822 75.05037459 25.21159753 83.87005941 25.20657361 92.68974888 C25.19610898 110.83744634 25.17776337 128.98512455 25.15625 147.1328125 C14.26625 147.1328125 3.37625 147.1328125 -7.84375 147.1328125 C-7.866296 128.11404678 -7.88472857 109.09529183 -7.89556217 90.07651615 C-7.90072539 81.24639979 -7.90776857 72.41629231 -7.91918945 63.58618164 C-7.92913551 55.89269185 -7.93560324 48.19920849 -7.93783849 40.50571245 C-7.93914574 36.42951598 -7.94223243 32.35333789 -7.94948006 28.27714729 C-7.95623904 24.44493495 -7.95836721 20.61274866 -7.95685768 16.78053093 C-7.95713406 15.36996189 -7.95913991 13.95939203 -7.96295547 12.54882812 C-7.96789075 10.63115561 -7.96614802 8.71346929 -7.96400452 6.79579163 C-7.96492631 5.72005921 -7.9658481 4.6443268 -7.96679783 3.53599644 C-7.71442757 -1.39291736 -4.18699576 0.00366912 0 0 Z " fill="#00C3CC" transform="translate(1039.84375,39.8671875)"/>
<path d="M0 0 C4.39656173 -0.02465504 8.7930872 -0.04283842 13.18969727 -0.05493164 C14.68644918 -0.05997121 16.18319616 -0.06680287 17.67993164 -0.07543945 C19.82699807 -0.08752159 21.97399962 -0.09323191 24.12109375 -0.09765625 C26.06133423 -0.10551147 26.06133423 -0.10551147 28.04077148 -0.11352539 C31 0 31 0 32 1 C32.09654727 2.88561518 32.12187241 4.77489455 32.12025452 6.66297913 C32.12162918 7.89282028 32.12300385 9.12266144 32.12442017 10.38977051 C32.12088056 11.76513696 32.11724574 13.14050317 32.11352539 14.51586914 C32.11324352 15.95442198 32.11340124 17.39297496 32.1139679 18.83152771 C32.11425589 22.74871143 32.10835884 26.66586479 32.10139394 30.58304143 C32.09516074 34.67233837 32.09455663 38.76163593 32.09336853 42.85093689 C32.09025511 50.59992398 32.08204159 58.34889703 32.07201904 66.09787792 C32.06085822 74.91756209 32.05534753 83.73724691 32.05032361 92.55693638 C32.03985898 110.70463384 32.02151337 128.85231205 32 147 C21.11 147 10.22 147 -1 147 C-1 110.04 -1 73.08 -1 35 C-0.67 35 -0.34 35 0 35 C0 71.3 0 107.6 0 145 C9.9 145 19.8 145 30 145 C30 97.48 30 49.96 30 1 C20.1 1 10.2 1 0 1 C0 0.67 0 0.34 0 0 Z " fill="#1CB9C4" transform="translate(1033,40)"/>
<path d="M0 0 C21.45 0 42.9 0 65 0 C65.495 0.99 65.495 0.99 66 2 C65.34 2 64.68 2 64 2 C63.67 2.66 63.34 3.32 63 4 C63 3.34 63 2.68 63 2 C42.54 2 22.08 2 1 2 C1.33 49.52 1.66 97.04 2 146 C3.98 145.01 3.98 145.01 6 144 C6.33 144.33 6.66 144.66 7 145 C8.67496853 145.09883425 10.35410108 145.12798993 12.03198242 145.12939453 C13.10788132 145.13254669 14.18378021 145.13569885 15.2922821 145.13894653 C16.4681337 145.1369223 17.64398529 145.13489807 18.85546875 145.1328125 C20.66800896 145.13424759 20.66800896 145.13424759 22.51716614 145.13571167 C25.0888372 145.13639441 27.66050995 145.13453366 30.23217773 145.13037109 C34.12552911 145.12508415 38.01876191 145.13028142 41.91210938 145.13671875 C44.41406275 145.13605681 46.91601605 145.13477325 49.41796875 145.1328125 C50.56750534 145.13483673 51.71704193 145.13686096 52.90141296 145.13894653 C60.97017849 145.11617407 68.95949443 144.66588529 77 144 C55.62783982 158.24810679 25.6861398 147 0 147 C0 98.49 0 49.98 0 0 Z " fill="#E9F7FD" transform="translate(25,40)"/>
<path d="M0 0 C0.66 0 1.32 0 2 0 C2.6509259 1.24735567 3.29551669 2.49801832 3.9375 3.75 C4.29714844 4.44609375 4.65679688 5.1421875 5.02734375 5.859375 C6.99917654 10.19899094 7.10101724 13.93896582 7.02172852 18.69628906 C7.0073172 19.69202942 7.0073172 19.69202942 6.99261475 20.70788574 C6.95973187 22.89391039 6.91935925 25.07972844 6.87890625 27.265625 C6.85459464 28.78447754 6.8307516 30.30333764 6.80735779 31.82220459 C6.74462036 35.81384928 6.67552462 39.80535948 6.60510254 43.796875 C6.53432551 47.8723337 6.46956467 51.94788751 6.40429688 56.0234375 C6.27541786 64.01573244 6.13926526 72.00787928 6 80 C15.24 79.67 24.48 79.34 34 79 C34.33 55.24 34.66 31.48 35 7 C35.33 7 35.66 7 36 7 C36 31.42 36 55.84 36 81 C25.77 81 15.54 81 5 81 C4.97421875 75.99070312 4.9484375 70.98140625 4.921875 65.8203125 C4.89668234 62.63015852 4.870331 59.44009708 4.83984375 56.25 C4.79165537 51.19628659 4.74755604 46.14278764 4.72900391 41.08886719 C4.71376174 37.01020409 4.67918432 32.93210542 4.63169098 28.85369492 C4.61695455 27.3045838 4.60896347 25.75539206 4.60811615 24.20621109 C4.59853828 15.46833558 4.20120363 7.91018902 0 0 Z " fill="#EDFAFE" transform="translate(784,106)"/>
<path d="M0 0 C7.90150532 -0.11580856 15.80265664 -0.20467034 23.70480061 -0.25906086 C27.37406177 -0.28516481 31.04274273 -0.32057487 34.71166992 -0.37719727 C38.25192659 -0.43149248 41.791625 -0.46141453 45.33226585 -0.47438622 C47.34159654 -0.4881329 49.35070231 -0.52717084 51.35969543 -0.56648254 C52.58073471 -0.5668602 53.80177399 -0.56723785 55.05981445 -0.56762695 C56.13681107 -0.57873001 57.21380768 -0.58983307 58.32344055 -0.60127258 C61 0 61 0 62.7931366 2.31282043 C65.0145349 7.25894451 66.33728884 10.65084463 65 16 C63.35 11.38 61.7 6.76 60 2 C52.61997953 1.909648 45.240261 1.83625562 37.85980511 1.79275131 C34.43277637 1.77187179 31.00614546 1.74354917 27.5793457 1.69824219 C23.64018508 1.64648675 19.70118582 1.62705763 15.76171875 1.609375 C14.53039719 1.58872986 13.29907562 1.56808472 12.03044128 1.54681396 C10.88948502 1.54651184 9.74852875 1.54620972 8.57299805 1.54589844 C7.567061 1.53701599 6.56112396 1.52813354 5.52470398 1.51898193 C2.83922765 1.76898053 2.83922765 1.76898053 1.15168762 4.02838135 C0.77163071 4.6790155 0.39157379 5.32964966 0 6 C0 4.02 0 2.04 0 0 Z " fill="#17B4C1" transform="translate(917,159)"/>
<path d="M0 0 C1.27710684 3.83132052 0.44164418 5.35667355 -0.875 9.125 C-1.24367188 10.20007813 -1.61234375 11.27515625 -1.9921875 12.3828125 C-3 15 -3 15 -4 16 C-6.52094076 16.08847743 -9.01430893 16.11527301 -11.53515625 16.09765625 C-12.66503212 16.09553383 -12.66503212 16.09553383 -13.81773376 16.09336853 C-16.2326956 16.08775376 -18.64756601 16.07519883 -21.0625 16.0625 C-22.69596221 16.0574869 -24.32942586 16.05292366 -25.96289062 16.04882812 C-29.97529585 16.03777954 -33.98763241 16.02050506 -38 16 C-37.34 14.68 -36.68 13.36 -36 12 C-36 12.66 -36 13.32 -36 14 C-25.77 14 -15.54 14 -5 14 C-5 13.01 -5 12.02 -5 11 C-4.34 11 -3.68 11 -3 11 C-2.86722656 10.37351563 -2.73445312 9.74703125 -2.59765625 9.1015625 C-2.42105469 8.28429687 -2.24445312 7.46703125 -2.0625 6.625 C-1.88847656 5.81289062 -1.71445312 5.00078125 -1.53515625 4.1640625 C-1 2 -1 2 0 0 Z " fill="#23BBC7" transform="translate(914,171)"/>
<path d="M0 0 C2 3 2 3 2 6 C-8.89 6 -19.78 6 -31 6 C-31.33 5.34 -31.66 4.68 -32 4 C-16.655 3.505 -16.655 3.505 -1 3 C-0.67 2.01 -0.34 1.02 0 0 Z " fill="#20BDC9" transform="translate(1018,181)"/>
<path d="M0 0 C1.74627478 2.61941217 2.38722388 4.03824877 3 7 C1.02 7.99 1.02 7.99 -1 9 C-0.01 9.66 0.98 10.32 2 11 C2 11.66 2 12.32 2 13 C1.23300781 13.56203125 0.46601562 14.1240625 -0.32421875 14.703125 C-3.56276385 17.48307321 -4.41280913 19.75088324 -5.8125 23.75 C-6.23144531 24.92046875 -6.65039062 26.0909375 -7.08203125 27.296875 C-7.53642578 28.63492188 -7.53642578 28.63492188 -8 30 C-8.66 30 -9.32 30 -10 30 C-7.98086853 23.0449018 -5.73400143 16.19969087 -3.3125 9.375 C-2.83200195 8.01181641 -2.83200195 8.01181641 -2.34179688 6.62109375 C-1.56326686 4.41332207 -0.78264756 2.20631463 0 0 Z " fill="#13BEC7" transform="translate(908,96)"/>
<path d="M0 0 C2.62386487 3.06117568 3 3.73173127 3 8 C-9.54 7.67 -22.08 7.34 -35 7 C-34.67 5.68 -34.34 4.36 -34 3 C-34 3.99 -34 4.98 -34 6 C-22.45 6 -10.9 6 1 6 C0.505 3.03 0.505 3.03 0 0 Z " fill="#22B8C5" transform="translate(965,124)"/>
<path d="M0 0 C1.04702186 3.7264085 1.07442057 7.13013042 1 11 C0.34 11 -0.32 11 -1 11 C-1.103125 11.721875 -1.20625 12.44375 -1.3125 13.1875 C-2.06782523 16.27746686 -3.19137976 18.39558686 -5 21 C-5.66 21.33 -6.32 21.66 -7 22 C-6.23754579 17.18399177 -4.58720144 12.75384298 -2.9375 8.1875 C-2.65583984 7.39923828 -2.37417969 6.61097656 -2.08398438 5.79882812 C-1.39241462 3.86477711 -0.69662722 1.93223512 0 0 Z " fill="#15C1C8" transform="translate(886,158)"/>
<path d="M0 0 C0.33 0 0.66 0 1 0 C0.88601335 1.62580966 0.75844341 3.25067157 0.625 4.875 C0.55539062 5.77992187 0.48578125 6.68484375 0.4140625 7.6171875 C0 10 0 10 -2 12 C-2.71408334 13.98356483 -3.38617742 15.98315437 -4 18 C-4.66 18 -5.32 18 -6 18 C-4.41039668 11.76559832 -2.72399099 5.83712355 0 0 Z " fill="#1BB8C5" transform="translate(918,69)"/>
<path d="M0 0 C1.18771723 3.42943519 0.80226223 5.37784675 -0.4375 8.75 C-0.72496094 9.54921875 -1.01242187 10.3484375 -1.30859375 11.171875 C-1.53675781 11.77515625 -1.76492188 12.3784375 -2 13 C-3.42166892 8.73499324 -2.57997373 5.44646526 -2 1 C-5.3 1 -8.6 1 -12 1 C-12 0.67 -12 0.34 -12 0 C-3.42857143 -1.28571429 -3.42857143 -1.28571429 0 0 Z " fill="#EEFCFE" transform="translate(668,140)"/>
<path d="M0 0 C2.46301423 2.46301423 2.76766521 4.27360036 3.625 7.625 C3.88539063 8.62789062 4.14578125 9.63078125 4.4140625 10.6640625 C4.60742188 11.43492188 4.80078125 12.20578125 5 13 C0.27967098 10.57931845 0.27967098 10.57931845 -0.875 8.1875 C-1.03743311 5.34492055 -0.56880795 2.78083888 0 0 Z " fill="#12BCC5" transform="translate(971,50)"/>
<path d="M0 0 C0.99 0.33 1.98 0.66 3 1 C2.4752803 4.88292578 1.70267485 6.29732515 -1 9 C-2.13822826 11.29190759 -3.05584251 13.61712632 -4 16 C-5 14 -5 14 -4.00390625 10.7421875 C-3.53110016 9.4502948 -3.05028031 8.16131362 -2.5625 6.875 C-2.31951172 6.21628906 -2.07652344 5.55757812 -1.82617188 4.87890625 C-1.22421679 3.25008662 -0.61297588 1.62470425 0 0 Z " fill="#1CBBC7" transform="translate(897,127)"/>
<path d="M0 0 C0.33 0 0.66 0 1 0 C1.0867982 3.79152334 1.14032207 7.58279296 1.1875 11.375 C1.21263672 12.45523438 1.23777344 13.53546875 1.26367188 14.6484375 C1.27333984 15.6796875 1.28300781 16.7109375 1.29296875 17.7734375 C1.3086792 18.72653809 1.32438965 19.67963867 1.34057617 20.66162109 C1.22818604 21.43328613 1.1157959 22.20495117 1 23 C0.01 23.66 -0.98 24.32 -2 25 C-1.34 16.75 -0.68 8.5 0 0 Z " fill="#EAF8FD" transform="translate(116,108)"/>
<path d="M0 0 C5.94 0 11.88 0 18 0 C18 0.33 18 0.66 18 1 C16.86820312 1.13277344 15.73640625 1.26554687 14.5703125 1.40234375 C13.08851821 1.5805342 11.60674864 1.75893029 10.125 1.9375 C9.00544922 2.06801758 9.00544922 2.06801758 7.86328125 2.20117188 C3.8046769 2.63326063 3.8046769 2.63326063 0 4 C0 2.68 0 1.36 0 0 Z " fill="#E3FDFF" transform="translate(420,75)"/>
<path d="M0 0 C0.59375 1.83984375 0.59375 1.83984375 1 4 C0.01810813 5.67739862 -0.98133771 7.34467377 -2 9 C-1.24849977 12.27773504 -1.24849977 12.27773504 2 14 C-0.31 14 -2.62 14 -5 14 C-4.46515599 8.65155992 -2.53309233 4.64203897 0 0 Z " fill="#EDFBFE" transform="translate(607,95)"/>
<path d="M0 0 C1.5 1.25 1.5 1.25 3 3 C3 4.32 3 5.64 3 7 C3.66 7 4.32 7 5 7 C5.33 10.3 5.66 13.6 6 17 C3.51340379 14.51340379 2.9656889 12.39516054 1.875 9.0625 C1.52179687 8.00160156 1.16859375 6.94070312 0.8046875 5.84765625 C0 3 0 3 0 0 Z " fill="#1BBCC7" transform="translate(954,92)"/>
<path d="M0 0 C2.95183101 2.95183101 3.08663988 5.95511947 4 10 C2.68 10.33 1.36 10.66 0 11 C0 7.37 0 3.74 0 0 Z " fill="#14BBC6" transform="translate(986,92)"/>
<path d="M0 0 C0.66 0 1.32 0 2 0 C2 0.66 2 1.32 2 2 C2.66 2 3.32 2 4 2 C4.33 5.63 4.66 9.26 5 13 C3.09610151 10.14415227 2.30537823 8.0688238 1.375 4.8125 C0.98441406 3.46091797 0.98441406 3.46091797 0.5859375 2.08203125 C0.39257812 1.39496094 0.19921875 0.70789063 0 0 Z " fill="#1EBBC5" transform="translate(949,79)"/>
<path d="M0 0 C0.33 0 0.66 0 1 0 C0.67 3.3 0.34 6.6 0 10 C-0.99 10.33 -1.98 10.66 -3 11 C-2.01 7.37 -1.02 3.74 0 0 Z " fill="#1EB6CB" transform="translate(891,143)"/>
<path d="M0 0 C3.80984844 2.77079887 4.06840752 6.62868145 5 11 C2.65808437 8.8709858 1.16445046 6.95591271 0 4 C0 2.68 0 1.36 0 0 Z " fill="#ECF8FD" transform="translate(290,156)"/>
<path d="M0 0 C0.66 0 1.32 0 2 0 C1.21302675 3.41021743 0.12880057 6.68885166 -1 10 C-1.66 10 -2.32 10 -3 10 C-2.01 6.7 -1.02 3.4 0 0 Z " fill="#17B7C3" transform="translate(923,55)"/>
<path d="M0 0 C1.45880109 0.14107747 2.91703551 0.28802415 4.375 0.4375 C5.59316406 0.55931641 5.59316406 0.55931641 6.8359375 0.68359375 C9 1 9 1 11 2 C11 2.66 11 3.32 11 4 C7.0507432 3.44894091 3.65079826 2.61064629 0 1 C0 0.67 0 0.34 0 0 Z " fill="#EFF9FE" transform="translate(193,184)"/>
<path d="M0 0 C2.62386487 3.06117568 3 3.73173127 3 8 C1.02 8 -0.96 8 -3 8 C-2.01 7.34 -1.02 6.68 0 6 C0.2502157 2.91634129 0.2502157 2.91634129 0 0 Z " fill="#10B9C1" transform="translate(965,124)"/>
<path d="M0 0 C1.45792884 -0.05399736 2.91642712 -0.09279177 4.375 -0.125 C5.18710938 -0.14820312 5.99921875 -0.17140625 6.8359375 -0.1953125 C9 0 9 0 11 2 C5.06 2.495 5.06 2.495 -1 3 C-0.67 2.01 -0.34 1.02 0 0 Z " fill="#EFF9FE" transform="translate(211,99)"/>
</svg>
